<?xml version="1.0" standalone="no"?>
<!DOCTYPE svg PUBLIC "-//W3C//DTD SVG 20010904//EN"
 "http://www.w3.org/TR/2001/REC-SVG-20010904/DTD/svg10.dtd">
<svg version="1.0" xmlns="http://www.w3.org/2000/svg"
 width="150.000000pt" height="150.000000pt" viewBox="0 0 150.000000 150.000000"
 preserveAspectRatio="xMidYMid meet">

<g transform="translate(0.000000,150.000000) scale(0.100000,-0.100000)"
fill="#000000" stroke="none">
<path d="M20 750 l0 -190 730 0 730 0 0 190 0 190 -730 0 -730 0 0 -190z
m1390 -1 l0 -119 -30 0 -30 0 0 118 c0 65 2 121 5 124 3 3 17 3 30 0 25 -4 25
-5 25 -123z m-1063 106 c28 -19 34 -48 17 -80 -12 -23 -12 -30 0 -47 17 -24 4
-73 -24 -88 -10 -6 -71 -10 -134 -10 l-116 0 0 120 0 120 118 0 c87 0 123 -4
139 -15z m333 -5 c0 -19 -7 -20 -110 -20 l-110 0 0 -80 0 -80 111 0 c106 0
110 -1 107 -21 -3 -19 -10 -20 -128 -20 -69 0 -131 0 -137 0 -10 1 -13 32 -13
121 l0 120 140 0 c133 0 140 -1 140 -20z m310 0 c0 -18 -8 -20 -107 -22 -96
-3 -108 -5 -111 -22 -6 -28 15 -36 101 -36 88 0 117 -17 117 -70 0 -17 -9 -39
-20 -50 -18 -18 -33 -20 -140 -20 -113 0 -120 1 -120 20 0 19 7 20 105 20 85
0 107 3 111 15 13 32 -15 45 -97 45 -66 0 -82 3 -99 20 -26 26 -25 68 2 97 20
22 29 23 140 23 111 0 118 -1 118 -20z m177 -69 c43 -49 81 -90 86 -90 4 -1 7
40 7 89 l0 90 30 0 30 0 0 -120 0 -120 -44 0 c-42 0 -45 3 -117 85 l-74 85 -3
-85 -3 -85 -29 0 -30 0 0 120 0 120 34 0 c31 0 43 -9 113 -89z m-487 -31 c0
-19 -7 -20 -90 -20 -79 0 -91 2 -100 20 -10 19 -8 20 90 20 93 0 100 -1 100
-20z"/>
<path d="M150 750 l0 -80 69 0 c49 0 72 4 81 15 21 25 -5 45 -61 45 -38 0 -51
4 -59 20 -10 18 -6 19 51 22 46 2 65 7 73 21 16 26 -8 37 -86 37 l-68 0 0 -80z"/>
</g>
</svg>
